HIERARCHY
ROOT Hips
{
	OFFSET -3.958830 18.904000 13.208200
	CHANNELS 6 Xposition Yposition Zposition Zrotation Yrotation Xrotation 
	JOINT LHipJoint
	{
		OFFSET 0.000000 0.000000 0.000000
		CHANNELS 3 Zrotation Yrotation Xrotation
		JOINT LeftUpLeg
		{
			OFFSET 1.800000 -1.400000 0.085000
			CHANNELS 3 Zrotation Yrotation Xrotation
			JOINT LeftLeg
			{
				OFFSET 2.215000 -6.000000 0.000000
				CHANNELS 3 Zrotation Yrotation Xrotation
				JOINT LeftFoot
				{
					OFFSET 2.500000 -6.900000 0.000000
					CHANNELS 3 Zrotation Yrotation Xrotation
					JOINT LeftToeBase
					{
						OFFSET 0.200000 -0.500000 1.950000
						CHANNELS 3 Zrotation Yrotation Xrotation
						End Site
						{
							OFFSET 0.000000 0.000000 0.000000
						}
					}
				}
			}
		}
	}
	JOINT RHipJoint
	{
		OFFSET 0.000000 0.000000 0.000000
		CHANNELS 3 Zrotation Yrotation Xrotation
		JOINT RightUpLeg
		{
			OFFSET -1.800000 -1.400000 0.085000
			CHANNELS 3 Zrotation Yrotation Xrotation
			JOINT RightLeg
			{
				OFFSET -2.215000 -6.000000 0.000000
				CHANNELS 3 Zrotation Yrotation Xrotation
				JOINT RightFoot
				{
					OFFSET -2.500000 -6.900000 0.000000
					CHANNELS 3 Zrotation Yrotation Xrotation
					JOINT RightToeBase
					{
						OFFSET -0.200000 -0.500000 1.950000
						CHANNELS 3 Zrotation Yrotation Xrotation
						End Site
						{
							OFFSET 0.000000 0.000000 0.000000
						}
					}
				}
			}
		}
	}
	JOINT LowerBack
	{
		OFFSET 0.000000 0.000000 0.000000
		CHANNELS 3 Zrotation Yrotation Xrotation
		JOINT Spine
		{
			OFFSET -0.087000 1.940000 -0.288900
			CHANNELS 3 Zrotation Yrotation Xrotation
			JOINT Spine1
			{
				OFFSET 0.000000 1.950000 0.060000
				CHANNELS 3 Zrotation Yrotation Xrotation
				JOINT Neck
				{
					OFFSET 0.000000 0.000000 0.000000
					CHANNELS 3 Zrotation Yrotation Xrotation
					JOINT Neck1
					{
						OFFSET 0.000000 1.600000 0.340000
						CHANNELS 3 Zrotation Yrotation Xrotation
						JOINT Head
						{
							OFFSET 0.000000 1.667000 -0.240000
							CHANNELS 3 Zrotation Yrotation Xrotation
							End Site
							{
								OFFSET 0.000000 0.000000 0.000000
							}
						}
					}
				}
				JOINT LeftShoulder
				{
					OFFSET 0.000000 0.000000 0.000000
					CHANNELS 3 Zrotation Yrotation Xrotation
					JOINT LeftArm
					{
						OFFSET 2.700000 1.550000 -0.730000
						CHANNELS 3 Zrotation Yrotation Xrotation
						JOINT LeftForeArm
						{
							OFFSET 5.450000 0.000000 0.000000
							CHANNELS 3 Zrotation Yrotation Xrotation
							JOINT LeftHand
							{
								OFFSET 3.450000 0.000000 0.000000
								CHANNELS 3 Zrotation Yrotation Xrotation
								JOINT LeftHandIndex1
								{
									OFFSET 0.750000 0.000000 0.000000
									CHANNELS 3 Zrotation Yrotation Xrotation
									End Site
									{
										OFFSET 0.000000 0.000000 0.000000
									}
								}
							}
						}
					}
				}
				JOINT RightShoulder
				{
					OFFSET 0.000000 0.000000 0.000000
					CHANNELS 3 Zrotation Yrotation Xrotation
					JOINT RightArm
					{
						OFFSET -2.700000 1.550000 -0.730000
						CHANNELS 3 Zrotation Yrotation Xrotation
						JOINT RightForeArm
						{
							OFFSET -5.450000 0.000000 0.000000
							CHANNELS 3 Zrotation Yrotation Xrotation
							JOINT RightHand
							{
								OFFSET -3.450000 0.000000 0.000000
								CHANNELS 3 Zrotation Yrotation Xrotation
								JOINT RightHandIndex1
								{
									OFFSET -0.750000 0.000000 0.000000
									CHANNELS 3 Zrotation Yrotation Xrotation
									End Site
									{
										OFFSET 0.000000 0.000000 0.000000
									}
								}
							}
						}
					}
				}
			}
		}
	}
}
MOTION
Frames: 7
Frame Time: 0.016667
-1.003690 15.891150 -3.063290 -14.797720 -27.495735 2.794580 -16.478295 12.976103 4.430962 47.157908 8.096633 -16.635882 6.120253 9.373062 19.229529 0.189181 7.624536 1.528986 1.214050 1.229640 0.810780 17.657363 -6.095047 4.162529 -6.392451 18.818316 -30.449001 30.380741 -17.642669 40.019141 -1.752639 -7.865241 1.617562 0.698470 -0.414300 0.046270 -1.115390 -7.644903 -10.078179 3.620624 -12.332230 34.790209 -10.907986 -10.078856 17.481505 16.400669 -8.483485 -18.939818 -23.820121 7.760903 35.637681 3.389640 -3.290700 -31.343740 -12.046980 -34.388686 12.682786 -45.202602 -39.957092 3.805495 -5.045783 -8.441796 -0.656209 -2.951410 3.132658 0.621260 -0.418890 0.499820 0.270660 -20.671587 40.719413 3.791769 -50.378357 1.818734 -16.611391 -16.953049 0.161965 -2.219248 2.846656 -0.835487 0.160820 0.354880 -0.448450 -0.144260 
-0.984720 15.940390 -3.035670 -15.599563 -27.444322 3.495050 -16.372918 13.006287 4.409670 46.868910 7.813450 -15.137768 6.939325 8.819818 16.680026 0.258742 7.372823 1.645333 1.175360 1.180240 0.768250 17.700533 -6.298425 4.170394 -6.196137 18.737771 -29.285060 31.090154 -16.391260 37.135274 -1.649082 -7.337004 1.794103 0.638140 -0.438480 0.032880 -1.294913 -7.407323 -9.991099 7.050280 -13.241727 34.459200 -12.318547 -9.791013 15.947010 17.106721 -8.800812 -18.914620 -24.404754 6.048223 35.528354 4.753880 -4.552960 -32.913020 -12.441919 -34.232813 12.497935 -46.173083 -38.403623 3.170099 -6.850170 -9.930258 -0.661829 -2.834262 3.173033 0.645010 -0.470050 0.513360 0.277460 -21.553611 41.467325 4.034066 -49.544278 1.900815 -17.487258 -17.432642 -3.546609 -2.172847 3.083686 -0.779914 0.172310 0.330880 -0.454270 -0.128480 
-0.966160 15.987420 -3.009480 -16.365446 -27.499922 4.167856 -16.289883 13.065486 4.364231 46.493652 7.463554 -13.850520 7.838810 8.351536 14.801816 0.302730 7.177334 1.735276 1.137700 1.122550 0.735530 17.730176 -6.468972 4.169384 -5.693710 18.588232 -28.269415 31.085175 -15.270764 34.990485 -1.554869 -6.895815 1.942779 0.581580 -0.460760 0.028780 -1.427251 -7.251154 -9.902347 10.055013 -13.893907 34.095341 -13.349877 -9.418180 14.490106 17.701225 -9.042611 -18.641263 -24.591682 4.404914 35.368031 5.732510 -5.609020 -34.427510 -12.932217 -33.870628 12.150353 -47.352965 -36.709505 2.536557 -8.580564 -11.507336 -0.687467 -2.745202 3.213142 0.673080 -0.508640 0.519610 0.274480 -22.144641 41.952504 4.134113 -48.679030 2.242572 -18.329705 -18.501893 -6.134294 -2.021313 3.261376 -0.781554 0.176290 0.301250 -0.451550 -0.125950 
-0.953530 16.029190 -2.982380 -16.945046 -27.539507 4.605373 -16.238448 13.171321 4.312627 46.036263 7.030651 -12.670275 8.614067 7.957907 13.311658 0.340854 7.012815 1.812330 1.113230 1.086610 0.708300 17.734144 -6.614282 4.128961 -4.954079 18.185663 -27.129973 30.511128 -14.293549 33.417665 -1.467099 -6.525722 2.070434 0.542750 -0.476640 0.026710 -1.474212 -7.211944 -9.819614 12.416647 -14.089971 33.650890 -13.739182 -8.974365 13.537834 18.122701 -9.379707 -18.173990 -24.719268 2.800794 34.836164 6.447840 -6.662480 -35.647120 -13.482295 -33.485445 11.719345 -48.339245 -35.190846 1.944093 -10.549152 -13.088447 -0.672577 -2.682488 3.252366 0.681910 -0.534990 0.519210 0.274940 -22.304857 42.369475 4.319256 -48.073388 2.422692 -19.110057 -20.133375 -7.897689 -1.864895 3.385525 -0.841336 0.185750 0.273660 -0.453160 -0.118290 
-0.943850 16.072400 -2.955420 -17.502288 -27.669603 4.795036 -16.222360 13.311403 4.300624 45.734759 6.564378 -11.373953 9.072616 7.680842 11.944383 0.381808 6.919772 1.866838 1.088790 1.050410 0.691380 17.710638 -6.723372 4.036931 -3.836390 17.558729 -25.619588 29.333459 -13.314079 32.109240 -1.378013 -6.145599 2.200780 0.505640 -0.489320 0.028540 -1.431426 -7.304170 -9.763914 14.092154 -13.993338 33.433124 -13.530241 -8.521539 13.010866 18.455916 -9.571871 -17.750666 -24.657702 1.512999 34.645326 6.860310 -7.480910 -36.816360 -14.272333 -33.188947 11.471309 -49.116907 -33.650522 1.179012 -11.997509 -14.930486 -0.667788 -2.637393 3.278891 0.690960 -0.555980 0.522160 0.270700 -22.089438 42.762438 4.517165 -47.630458 2.764428 -19.861844 -22.275416 -8.881244 -1.719683 3.450033 -0.927849 0.193180 0.253190 -0.451230 -0.113840 
-0.935520 16.110150 -2.926430 -17.989993 -27.865924 4.983677 -16.215842 13.433272 4.310362 45.525386 6.063978 -10.069690 9.279408 7.480258 10.660204 0.423529 6.864980 1.909008 1.071890 1.023390 0.678080 17.684264 -6.812404 3.935611 -2.784792 16.842864 -24.223419 28.133112 -12.474678 30.961450 -1.297845 -5.811388 2.318327 0.476830 -0.499820 0.030890 -1.379546 -7.404216 -9.723832 15.549615 -13.801823 33.033701 -13.102819 -8.106902 12.745371 18.650099 -9.745585 -17.330619 -24.568456 0.524970 34.545308 7.109980 -8.126280 -37.576820 -15.045376 -32.938697 11.313799 -49.807941 -32.048224 0.308253 -13.493149 -17.012046 -0.634561 -2.600595 3.308313 0.694310 -0.570780 0.521840 0.270030 -21.627793 43.094714 4.664992 -47.314934 3.394340 -20.511640 -24.689540 -9.366956 -1.608845 3.468351 -1.039013 0.200990 0.231610 -0.453400 -0.109890 
-0.928430 16.140480 -2.895970 -18.334934 -27.939484 5.195592 -16.197151 13.505479 4.322766 45.271740 5.531362 -8.978408 9.291722 7.304777 9.490813 0.449451 6.817087 1.941246 1.061750 1.011640 0.660760 17.673177 -6.919454 3.837904 -1.978827 16.064024 -23.105464 27.048101 -11.834204 30.037735 -1.227940 -5.554034 2.404857 0.466330 -0.502510 0.034090 -1.374229 -7.398146 -9.675556 16.967675 -13.639454 32.232832 -12.737788 -7.889893 12.963464 18.679537 -9.969198 -16.870410 -24.328459 -0.317445 34.061631 7.320590 -8.615050 -37.924610 -15.570463 -32.789517 11.209484 -50.099108 -30.607175 -0.478927 -15.279397 -18.857552 -0.526049 -2.585240 3.336788 0.685200 -0.575120 0.514670 0.271440 -21.124564 43.305785 4.706042 -46.907942 4.222182 -21.116786 -27.415574 -9.558469 -1.563692 3.460785 -1.172100 0.207730 0.212890 -0.453150 -0.102710 
